<svg width="24" height="24" viewBox="0 0 24 24" fill="none" xmlns="http://www.w3.org/2000/svg">
<path fill-rule="evenodd" clip-rule="evenodd" d="M11.9873 3.83142C7.48626 3.83142 3.83105 7.49039 3.83105 11.9914C3.83105 14.3417 4.82788 16.463 6.42137 17.953C6.42834 17.9597 6.43557 17.9663 6.44294 17.9727C7.89874 19.3245 9.84727 20.1524 11.9873 20.1524C12.0576 20.1524 12.1283 20.1513 12.1982 20.1494C13.5264 20.1157 14.7758 19.7633 15.874 19.166C16.4641 18.8451 17.0105 18.4534 17.5015 18.0025C17.502 18.002 17.503 18.0012 17.5034 18.0007C17.5339 17.9782 17.5616 17.952 17.5859 17.9229C19.162 16.4342 20.1471 14.3263 20.1471 11.9914C20.1471 7.4904 16.4881 3.83142 11.9871 3.83142L11.9873 3.83142ZM11.9873 4.79142C15.9692 4.79142 19.1873 8.00931 19.1873 11.9914C19.1873 13.7335 18.5712 15.3297 17.5448 16.5741C17.5384 16.5818 17.5317 16.5896 17.5251 16.5975C17.4951 16.4858 17.4624 16.3753 17.4257 16.2666C17.4117 16.225 17.3967 16.1839 17.3817 16.1428C16.9627 14.9916 16.174 14.0162 15.157 13.3519C14.786 13.1096 14.3846 12.9084 13.9598 12.7556C13.9657 12.7516 13.9718 12.7476 13.9776 12.7434C14.8559 12.1214 15.4317 11.1007 15.4317 9.95061C15.4317 8.06342 13.881 6.5278 11.9873 6.5278C11.8985 6.5278 11.8109 6.53142 11.7239 6.53811C11.6948 6.54026 11.6655 6.54267 11.6367 6.54561C9.90632 6.72119 8.54668 8.18142 8.54668 9.9506C8.54668 11.108 9.12885 12.1347 10.0158 12.7556C8.50972 13.2976 7.29995 14.4434 6.69138 15.899C6.67464 15.9392 6.65843 15.9793 6.64263 16.02C6.56883 16.2089 6.50535 16.403 6.45231 16.6012C6.44481 16.5921 6.43731 16.5831 6.42981 16.574C5.40337 15.3298 4.78732 13.7337 4.78732 11.9914C4.78732 11.9291 4.7888 11.8676 4.79027 11.8058C4.88871 7.90988 8.0675 4.79126 11.9875 4.79126L11.9873 4.79142ZM11.9873 7.48861C13.3654 7.48861 14.4717 8.5852 14.4717 9.9505C14.4717 11.273 13.4335 12.3484 12.1157 12.4142C12.1118 12.4145 12.1075 12.415 12.1035 12.4152H12.0979C12.0612 12.4145 12.0241 12.4133 11.9873 12.4133C11.9504 12.4133 11.9142 12.4145 11.8776 12.4152C11.8757 12.415 11.8733 12.4153 11.871 12.4152C11.8671 12.415 11.8629 12.4145 11.8588 12.4142C11.2 12.3813 10.6125 12.0962 10.1892 11.6539C10.1755 11.6396 10.1621 11.6254 10.1488 11.6108C9.97581 11.4211 9.83224 11.2044 9.72511 10.9677C9.71681 10.9494 9.7085 10.9308 9.70074 10.9123C9.57592 10.6172 9.50761 10.2917 9.50761 9.95046C9.50761 9.92916 9.50708 9.90787 9.50761 9.88671C9.54136 8.55131 10.6307 7.48859 11.9873 7.48859L11.9873 7.48861ZM11.8701 13.3751C11.9091 13.3765 11.9479 13.377 11.9873 13.377C12.0169 13.377 12.0469 13.3769 12.0763 13.3761C12.0861 13.3758 12.0956 13.3754 12.1054 13.3751C14.452 13.4298 16.352 15.1165 16.699 17.32C16.7046 17.3555 16.7092 17.3912 16.714 17.4269C15.4501 18.5265 13.7976 19.1913 11.987 19.1913C10.1777 19.1913 8.52658 18.5274 7.26281 17.4288C7.31692 17.0223 7.42446 16.6324 7.57687 16.2663C7.5908 16.233 7.60446 16.1999 7.61906 16.1669C8.33611 14.5528 9.95344 13.4198 11.8698 13.375L11.8701 13.3751Z" fill="black"/>
</svg>
