<svg viewBox="0 0 29 30" fill="none" xmlns="http://www.w3.org/2000/svg">
<mask id="path-1-inside-1_1436_2693" >
<path d="M28.9995 11.3295C28.9995 9.90735 28.7031 8.49913 28.1274 7.18523C27.5516 5.87133 26.7077 4.6775 25.6439 3.67189C24.58 2.66628 23.317 1.86858 21.927 1.32435C20.537 0.780113 19.0472 0.5 17.5427 0.5L17.5427 1.58295C18.8968 1.58295 20.2376 1.83505 21.4886 2.32486C22.7396 2.81467 23.8763 3.5326 24.8338 4.43765C25.7912 5.3427 26.5507 6.41715 27.0689 7.59966C27.5871 8.78216 27.8538 10.0496 27.8538 11.3295H28.9995Z"/>
</mask>
<path d="M28.9995 11.3295C28.9995 9.90735 28.7031 8.49913 28.1274 7.18523C27.5516 5.87133 26.7077 4.6775 25.6439 3.67189C24.58 2.66628 23.317 1.86858 21.927 1.32435C20.537 0.780113 19.0472 0.5 17.5427 0.5L17.5427 1.58295C18.8968 1.58295 20.2376 1.83505 21.4886 2.32486C22.7396 2.81467 23.8763 3.5326 24.8338 4.43765C25.7912 5.3427 26.5507 6.41715 27.0689 7.59966C27.5871 8.78216 27.8538 10.0496 27.8538 11.3295H28.9995Z"  stroke-width="2" />
<mask id="path-2-inside-2_1436_2693">
<path d="M0.000514984 11.3295C0.000514984 9.90735 0.296854 8.49913 0.87261 7.18523C1.44837 5.87133 2.29227 4.6775 3.35613 3.67189C4.41999 2.66628 5.68297 1.86858 7.07297 1.32435C8.46297 0.780113 9.95276 0.5 11.4573 0.5L11.4573 1.58295C10.1032 1.58295 8.7624 1.83505 7.5114 2.32486C6.2604 2.81467 5.12372 3.5326 4.16624 4.43765C3.20877 5.3427 2.44926 6.41715 1.93108 7.59966C1.4129 8.78216 1.14619 10.0496 1.14619 11.3295H0.000514984Z"/>
</mask>
<path d="M0.000514984 11.3295C0.000514984 9.90735 0.296854 8.49913 0.87261 7.18523C1.44837 5.87133 2.29227 4.6775 3.35613 3.67189C4.41999 2.66628 5.68297 1.86858 7.07297 1.32435C8.46297 0.780113 9.95276 0.5 11.4573 0.5L11.4573 1.58295C10.1032 1.58295 8.7624 1.83505 7.5114 2.32486C6.2604 2.81467 5.12372 3.5326 4.16624 4.43765C3.20877 5.3427 2.44926 6.41715 1.93108 7.59966C1.4129 8.78216 1.14619 10.0496 1.14619 11.3295H0.000514984Z"  stroke-width="2" />
<mask id="path-3-inside-3_1436_2693" >
<path d="M17.4059 29.4208C18.9104 29.4072 20.3973 29.1136 21.7817 28.5568C23.1661 28 24.421 27.1909 25.4746 26.1757C26.5282 25.1605 27.3599 23.959 27.9223 22.64C28.4848 21.3209 28.7668 19.9101 28.7524 18.488L27.6068 18.4984C27.6197 19.7783 27.3659 21.048 26.8597 22.2352C26.3536 23.4223 25.605 24.5036 24.6567 25.4173C23.7085 26.331 22.5791 27.0591 21.3331 27.5603C20.0872 28.0614 18.749 28.3256 17.395 28.3379L17.4059 29.4208Z"/>
</mask>
<path d="M17.4059 29.4208C18.9104 29.4072 20.3973 29.1136 21.7817 28.5568C23.1661 28 24.421 27.1909 25.4746 26.1757C26.5282 25.1605 27.3599 23.959 27.9223 22.64C28.4848 21.3209 28.7668 19.9101 28.7524 18.488L27.6068 18.4984C27.6197 19.7783 27.3659 21.048 26.8597 22.2352C26.3536 23.4223 25.605 24.5036 24.6567 25.4173C23.7085 26.331 22.5791 27.0591 21.3331 27.5603C20.0872 28.0614 18.749 28.3256 17.395 28.3379L17.4059 29.4208Z"  stroke-width="2"/>
<mask id="path-4-inside-4_1436_2693" >
<path d="M11.4564 29.4208C9.95191 29.4072 8.46502 29.1136 7.08061 28.5568C5.69619 28 4.44135 27.1909 3.38773 26.1757C2.33412 25.1605 1.50236 23.959 0.939955 22.64C0.377547 21.3209 0.0955011 19.9101 0.109921 18.488L1.25555 18.4984C1.24257 19.7783 1.49641 21.048 2.00258 22.2352C2.50874 23.4223 3.25732 24.5036 4.20558 25.4173C5.15383 26.331 6.28319 27.0591 7.52916 27.5603C8.77514 28.0614 10.1133 28.3256 11.4673 28.3379L11.4564 29.4208Z"/>
</mask>
<path d="M11.4564 29.4208C9.95191 29.4072 8.46502 29.1136 7.08061 28.5568C5.69619 28 4.44135 27.1909 3.38773 26.1757C2.33412 25.1605 1.50236 23.959 0.939955 22.64C0.377547 21.3209 0.0955011 19.9101 0.109921 18.488L1.25555 18.4984C1.24257 19.7783 1.49641 21.048 2.00258 22.2352C2.50874 23.4223 3.25732 24.5036 4.20558 25.4173C5.15383 26.331 6.28319 27.0591 7.52916 27.5603C8.77514 28.0614 10.1133 28.3256 11.4673 28.3379L11.4564 29.4208Z"  stroke-width="2"/>
</svg>
