<svg width="24" height="24" viewBox="0 0 24 24" fill="none" xmlns="http://www.w3.org/2000/svg">
<path d="M4.53621 4.91138C3.36004 4.91138 2.3916 5.87981 2.3916 7.05598V16.9454C2.3916 18.1215 3.36004 19.0898 4.53621 19.0898H19.4529C20.6291 19.0898 21.5916 18.1214 21.5916 16.9454V7.05598C21.5916 5.87981 20.6291 4.91138 19.4529 4.91138H4.53621ZM4.53621 6.11138H19.4529C19.985 6.11138 20.3916 6.52387 20.3916 7.05585V8.25585H3.5916V7.05585C3.5916 6.52373 4.00409 6.11138 4.53607 6.11138H4.53621ZM3.59174 9.45585H20.3917V10.5808H3.59174V9.45585ZM3.59174 11.7808H20.3917V16.9453C20.3917 17.4774 19.9851 17.8887 19.453 17.8887H4.53634C4.00423 17.8887 3.59188 17.4774 3.59188 16.9453L3.59174 11.7808ZM5.30146 13.4426H5.30133C5.09039 13.4582 4.90317 13.5835 4.80834 13.7726C4.71352 13.9619 4.72517 14.1869 4.83901 14.3653C4.95284 14.5435 5.152 14.6489 5.36347 14.6426H9.55422C9.7156 14.6462 9.87176 14.5845 9.98721 14.4716C10.1027 14.3587 10.1676 14.2041 10.1676 14.0426C10.1676 13.8811 10.1027 13.7264 9.98721 13.6135C9.87177 13.5006 9.7156 13.439 9.55422 13.4426H5.36347C5.34285 13.4415 5.32209 13.4415 5.30133 13.4426L5.30146 13.4426ZM5.36361 15.2404L5.36347 15.2402C5.20209 15.2367 5.04593 15.2984 4.93048 15.4113C4.81503 15.5242 4.74994 15.6788 4.74994 15.8402C4.74994 16.0018 4.81503 16.1564 4.93048 16.2694C5.04593 16.3823 5.20209 16.4439 5.36347 16.4403H7.15288C7.3144 16.4439 7.47042 16.3823 7.58587 16.2694C7.70132 16.1565 7.76641 16.0018 7.76641 15.8402C7.76641 15.6789 7.70132 15.5242 7.58587 15.4113C7.47043 15.2984 7.3144 15.2367 7.15288 15.2402L5.36361 15.2404Z" fill="black"/>
</svg>
