<svg width="24" height="24" viewBox="0 0 24 24" fill="none" xmlns="http://www.w3.org/2000/svg">
<path d="M23.3333 22.6667H14.5333C14.1868 15.5467 8.45333 9.81333 1.33333 9.46667V0.666667C1.33333 0.293343 1.03999 0 0.666667 0C0.293343 0 0 0.293343 0 0.666667V23.3333C0 23.7067 0.293343 24 0.666667 24H23.3333C23.7067 24 24 23.7067 24 23.3333C24 22.96 23.7067 22.6667 23.3333 22.6667ZM1.33333 10.8C7.73333 11.1465 12.8533 16.2667 13.2 22.6667H1.33333V10.8Z" fill="#383838"/>
<path d="M6.24016 16.5867C5.60011 16.5867 5.06678 17.12 5.06678 17.76C5.06678 18.4001 5.60006 18.9334 6.24016 18.9334C6.8802 18.9334 7.41354 18.4001 7.41354 17.76C7.41354 17.12 6.88025 16.5867 6.24016 16.5867Z" fill="#383838"/>
</svg>
