<svg viewBox="0 0 20 20" fill="none" xmlns="http://www.w3.org/2000/svg">
<path d="M8 0.25H12C14.1217 0.25 16.1566 1.09285 17.6569 2.59315C19.1571 4.09344 20 6.12827 20 8.25C20 10.3717 19.1571 12.4066 17.6569 13.9069C16.1566 15.4071 14.1217 16.25 12 16.25V19.75C7 17.75 0 14.75 0 8.25C0 6.12827 0.842855 4.09344 2.34315 2.59315C3.84344 1.09285 5.87827 0.25 8 0.25ZM10 14.25H12C12.7879 14.25 13.5681 14.0948 14.2961 13.7933C15.0241 13.4917 15.6855 13.0498 16.2426 12.4926C16.7998 11.9355 17.2417 11.2741 17.5433 10.5461C17.8448 9.81815 18 9.03793 18 8.25C18 7.46207 17.8448 6.68185 17.5433 5.9539C17.2417 5.22595 16.7998 4.56451 16.2426 4.00736C15.6855 3.45021 15.0241 3.00825 14.2961 2.70672C13.5681 2.40519 12.7879 2.25 12 2.25H8C6.4087 2.25 4.88258 2.88214 3.75736 4.00736C2.63214 5.13258 2 6.6587 2 8.25C2 11.86 4.462 14.216 10 16.73V14.25Z" />
</svg>
