<svg viewBox="0 0 24 25" fill="none" xmlns="http://www.w3.org/2000/svg">
<path d="M20 9.25H11C9.89543 9.25 9 10.1454 9 11.25V20.25C9 21.3546 9.89543 22.25 11 22.25H20C21.1046 22.25 22 21.3546 22 20.25V11.25C22 10.1454 21.1046 9.25 20 9.25Z"  stroke-linecap="round" stroke-linejoin="round"/>
<path d="M5 15.25H4C3.46957 15.25 2.96086 15.0393 2.58579 14.6642C2.21071 14.2891 2 13.7804 2 13.25V4.25C2 3.71957 2.21071 3.21086 2.58579 2.83579C2.96086 2.46071 3.46957 2.25 4 2.25H13C13.5304 2.25 14.0391 2.46071 14.4142 2.83579C14.7893 3.21086 15 3.71957 15 4.25V5.25"  stroke-linecap="round" stroke-linejoin="round"/>
</svg>
