<svg width="24" height="24" viewBox="0 0 24 24" fill="none" xmlns="http://www.w3.org/2000/svg">
<path d="M19.3133 5.70862H4.68633C3.69016 5.70862 2.87988 6.51903 2.87988 7.51506V16.4767C2.87988 17.4728 3.69029 18.2831 4.68633 18.2831H19.3133C20.3095 18.2831 21.1197 17.4727 21.1197 16.4767L21.1199 7.51506C21.1199 6.51903 20.3095 5.70862 19.3134 5.70862H19.3133ZM20.288 16.4767C20.288 17.0142 19.8508 17.4515 19.3133 17.4515H4.68633C4.14887 17.4515 3.71159 17.0142 3.71159 16.4767V7.51513C3.71159 6.97767 4.14887 6.54039 4.68633 6.54039H19.3133C19.8508 6.54039 20.288 6.97767 20.288 7.51513V16.4767Z" fill="black"/>
<path d="M8.57465 9.03052H7.18405C6.20221 9.03052 5.40332 9.82941 5.40332 10.8112C5.40332 11.7931 6.20221 12.592 7.18405 12.592H8.57465C9.55649 12.592 10.3554 11.7931 10.3554 10.8112C10.3554 9.82927 9.55649 9.03052 8.57465 9.03052ZM8.57465 11.7602H7.18405C6.66078 11.7602 6.23502 11.3345 6.23502 10.8111C6.23502 10.2878 6.66078 9.86205 7.18405 9.86205H8.57465C9.09792 9.86205 9.52367 10.2878 9.52367 10.8112C9.52367 11.3345 9.09792 11.7602 8.57465 11.7602Z" fill="black"/>
<path d="M8.13675 14.0791H6.59163C6.36195 14.0791 6.17578 14.2653 6.17578 14.495C6.17578 14.7246 6.36194 14.9108 6.59163 14.9108H8.13675C8.36644 14.9108 8.5526 14.7246 8.5526 14.495C8.5526 14.2653 8.36644 14.0791 8.13675 14.0791Z" fill="black"/>
<path d="M12 14.0791H10.4549C10.2252 14.0791 10.0391 14.2653 10.0391 14.495C10.0391 14.7246 10.2252 14.9108 10.4549 14.9108H12C12.2297 14.9108 12.4159 14.7246 12.4159 14.495C12.4159 14.2653 12.2297 14.0791 12 14.0791Z" fill="black"/>
<path d="M15.8622 14.0791H14.3172C14.0875 14.0791 13.9014 14.2653 13.9014 14.495C13.9014 14.7246 14.0875 14.9108 14.3172 14.9108H15.8622C16.0919 14.9108 16.2781 14.7246 16.2781 14.495C16.2781 14.2653 16.0919 14.0791 15.8622 14.0791Z" fill="black"/>
</svg>
