<svg width="24" height="25" viewBox="0 0 24 25" fill="none" xmlns="http://www.w3.org/2000/svg">
<path d="M18.1321 15.087V11.7653C18.1321 10.2292 17.5561 8.77008 16.5 7.65645C16.1545 7.29162 15.7704 6.98438 15.3673 6.71562C15.0985 6.54285 14.7337 6.61959 14.58 6.88838C14.4073 7.15718 14.484 7.52198 14.7528 7.67562C15.0792 7.88683 15.4056 8.13645 15.6744 8.44355C16.5192 9.34595 16.9799 10.5172 16.9799 11.7651L16.98 15.1829C16.98 15.2596 16.9992 15.3173 17.0185 15.3749C16.9993 15.4325 16.98 15.4901 16.98 15.567C16.98 15.8933 17.2297 16.143 17.5561 16.143C17.9785 16.143 18.324 16.4885 18.324 16.9109C18.324 17.3333 17.9785 17.6789 17.5561 17.6789H6.42007C5.99767 17.6789 5.65213 17.3333 5.65213 16.9109C5.65213 16.4885 5.99767 16.143 6.42007 16.143H15.4825C15.8088 16.143 16.0585 15.8934 16.0585 15.567C16.0585 15.2406 15.8089 14.9909 15.4825 14.9909H6.99607V11.7653C6.99607 10.5365 7.4569 9.34609 8.3016 8.44369C9.204 7.48369 10.4904 6.92696 11.8152 6.92696H12.1416C12.5255 6.92696 12.9095 6.9654 13.2936 7.06143C13.3321 7.08058 13.3897 7.08058 13.4281 7.08058C13.6969 7.08058 13.9273 6.90781 13.9848 6.63901C14.0233 6.4854 14.004 6.33178 13.9273 6.21661C13.9848 6.04384 14.004 5.85178 14.004 5.67901C14.004 4.56528 13.1016 3.66284 11.9881 3.66284C10.8745 3.66284 9.97207 4.56524 9.97207 5.67888C9.97207 5.81334 9.99122 5.92852 10.0105 6.06284C9.0505 6.37007 8.16723 6.90768 7.47603 7.65644C6.42 8.77004 5.84397 10.2293 5.84397 11.7652V15.0868C5.05673 15.3365 4.5 16.066 4.5 16.9108C4.5 17.9668 5.36397 18.8308 6.42 18.8308H9.49207C9.49207 20.2132 10.6057 21.3268 11.9881 21.3268C13.3705 21.3268 14.4841 20.2132 14.4841 18.8308H17.5562C18.6122 18.8308 19.4762 17.9668 19.4762 16.9108C19.4761 16.0469 18.9193 15.3173 18.1321 15.0869L18.1321 15.087ZM11.9881 4.81495C12.4681 4.81495 12.8521 5.19892 12.8521 5.67892C12.8521 5.71736 12.8521 5.77495 12.8329 5.81338C12.7177 5.79423 12.5833 5.79423 12.4681 5.77495H12.3721H11.604H11.5272C11.3928 5.77495 11.2584 5.7941 11.1433 5.81338C11.1433 5.77495 11.1241 5.71736 11.1241 5.67892C11.124 5.19892 11.5081 4.81495 11.9881 4.81495H11.9881ZM11.9881 20.175C11.2393 20.175 10.6441 19.5798 10.6441 18.831H13.3321C13.3321 19.5798 12.7369 20.175 11.9881 20.175Z" fill="white"/>
</svg>
