<svg width="24" height="24" viewBox="0 0 24 24" fill="none" xmlns="http://www.w3.org/2000/svg">
<path d="M17.8879 8.71369H16.111V7.60356C16.111 5.36775 14.2329 3.54858 11.9967 3.54858C9.76048 3.54858 7.88241 5.36775 7.88241 7.60356V8.71369H6.06434C5.2518 8.71369 4.55176 9.42005 4.55176 10.2324V19.1351C4.55176 19.9476 5.2518 20.4687 6.06434 20.4687H17.8881C18.7004 20.4687 19.4417 19.9476 19.4417 19.1351L19.4418 10.2324C19.4418 9.42005 18.7004 8.71369 17.8881 8.71369H17.8879ZM9.058 7.60369C9.058 5.95558 10.3485 4.6148 11.9968 4.6148C13.6451 4.6148 14.9356 5.95568 14.9356 7.60369V8.71369H14.152V7.60356C14.152 6.43287 13.1678 5.48052 11.997 5.48052C10.8263 5.48052 9.84194 6.43287 9.84194 7.60356L9.84181 8.71369H9.05821L9.058 7.60369ZM12.9765 8.71369H11.0174V7.60356C11.0174 7.0207 11.4141 6.5466 11.9969 6.5466C12.5798 6.5466 12.9765 7.0207 12.9765 7.60356L12.9765 8.71369ZM18.2665 19.139C18.2665 19.3635 18.1554 19.4892 17.924 19.4892H6.09371C5.86228 19.4892 5.72795 19.3636 5.72795 19.139V10.1499C5.72795 9.92546 5.86228 9.6931 6.09371 9.6931H17.9243C18.1556 9.6931 18.2667 9.92546 18.2667 10.1499L18.2665 19.139ZM11.9764 11.1874C10.7052 11.1874 9.6928 12.222 9.6928 13.4934C9.6928 14.2193 10.0381 14.897 10.6257 15.3293V17.6467C10.6256 17.9413 10.8203 18.1177 11.1146 18.1177H12.8381C13.1324 18.1177 13.3685 17.9413 13.3685 17.6467V15.3293C13.9563 14.8968 14.2807 14.2192 14.2807 13.4934C14.2807 12.222 13.2475 11.1874 11.9764 11.1874H11.9764ZM12.6206 14.577C12.4516 14.671 12.3889 14.8489 12.3889 15.0427V17.138H11.8011V15.0427C11.8011 14.8491 11.6196 14.6711 11.451 14.577C11.058 14.3578 10.7753 13.9426 10.7753 13.4934C10.7753 12.8101 11.3121 12.254 11.9955 12.254C12.6789 12.254 13.2464 12.8101 13.2464 13.4934C13.2464 13.9425 13.0134 14.3578 12.6206 14.577H12.6206Z" fill="#383838"/>
</svg>
