<svg width="24" height="24" viewBox="0 0 24 24" fill="none" xmlns="http://www.w3.org/2000/svg">
<path d="M9.13094 19.9731C9.64015 19.9731 10.1286 19.7708 10.4886 19.4107C10.8487 19.0507 11.0509 18.5624 11.0509 18.0531C11.0509 17.5438 10.8487 17.0555 10.4886 16.6954C10.1286 16.3354 9.64015 16.1331 9.13094 16.1331C8.62173 16.1331 8.13329 16.3354 7.77329 16.6954C7.41315 17.0555 7.21094 17.5438 7.21094 18.0531C7.21589 18.5608 7.41987 19.0463 7.77878 19.4052C8.13785 19.7643 8.6232 19.9681 9.13094 19.9731ZM9.13094 17.2658V17.266C9.33464 17.266 9.52992 17.3468 9.67402 17.4908C9.818 17.6349 9.89889 17.8302 9.89889 18.0339C9.89889 18.2376 9.818 18.4329 9.67402 18.577C9.52992 18.721 9.33465 18.8019 9.13094 18.8019C8.92723 18.8019 8.73195 18.721 8.58785 18.577C8.44388 18.4329 8.36299 18.2376 8.36299 18.0339C8.36299 17.8302 8.44388 17.6349 8.58785 17.4908C8.73196 17.3468 8.92723 17.266 9.13094 17.266V17.2658Z" fill="black"/>
<path d="M18.1935 18.0339C18.1935 17.5247 17.9913 17.0362 17.6312 16.6762C17.271 16.3161 16.7827 16.1139 16.2735 16.1139C15.7643 16.1139 15.2759 16.3161 14.9159 16.6762C14.5557 17.0362 14.3535 17.5247 14.3535 18.0339C14.3535 18.5431 14.5557 19.0315 14.9159 19.3915C15.2759 19.7517 15.7643 19.9539 16.2735 19.9539C16.7811 19.9489 17.2666 19.745 17.6257 19.3861C17.9846 19.027 18.1886 18.5416 18.1935 18.0339ZM15.4863 18.0339C15.4863 17.8302 15.5672 17.6349 15.7113 17.4908C15.8553 17.3468 16.0507 17.2659 16.2544 17.2659C16.4579 17.2659 16.6533 17.3468 16.7973 17.4908C16.9414 17.6349 17.0223 17.8302 17.0223 18.0339C17.0223 18.2376 16.9414 18.4329 16.7973 18.577C16.6533 18.7209 16.4579 18.8018 16.2544 18.8018C16.0507 18.8018 15.8552 18.7209 15.7113 18.577C15.5672 18.4329 15.4863 18.2376 15.4863 18.0339Z" fill="black"/>
<path d="M3.98542 5.18908H6.00132L7.80615 15.4611H18.2126L20.0365 6.82108H7.46052L6.96125 4.03711H3.98535L3.98542 5.18908ZM8.76622 14.3091L8.53586 12.9458L17.5791 12.9459L17.272 14.3091L8.76622 14.3091ZM18.6158 7.97308L17.8094 11.7939H8.32462L7.65255 7.97308H18.6158Z" fill="black"/>
</svg>
